<svg width="28" height="31" viewBox="0 0 28 31" fill="none" xmlns="http://www.w3.org/2000/svg">
<path d="M22.7954 29.6221C21.0441 31.2506 19.1319 30.9934 17.2913 30.222C15.3434 29.4335 13.5563 29.3992 11.5012 30.222C8.9279 31.2849 7.56974 30.9763 6.03289 29.6221C-2.68789 20.9994 -1.40122 7.86836 8.49901 7.38837C10.9115 7.50837 12.5913 8.65691 14.0031 8.75976C16.1118 8.34834 18.1312 7.16552 20.3829 7.3198C23.0813 7.52551 25.1185 8.55405 26.4588 10.4054C20.8832 13.6111 22.2056 20.6566 27.3166 22.628C26.298 25.1993 24.9756 27.7535 22.7775 29.6392L22.7954 29.6221ZM13.8244 7.28552C13.5563 3.46276 16.7909 0.308563 20.5079 0C21.0262 4.42274 16.3263 7.71408 13.8244 7.28552Z" fill="white"/>
</svg>
