<svg width="230" height="50" viewBox="0 0 230 50" fill="none" xmlns="http://www.w3.org/2000/svg">
<rect x="0.5" y="0.5" width="49" height="49" rx="24.5" stroke="white" stroke-opacity="0.25"/>
<path fill-rule="evenodd" clip-rule="evenodd" d="M31 17H19C17.897 17 17 17.897 17 19V31C17 32.103 17.897 33 19 33H25V27.5H23V25H25V23C25 22.2044 25.3161 21.4413 25.8787 20.8787C26.4413 20.3161 27.2044 20 28 20H30V22.5H29C28.448 22.5 28 22.448 28 23V25H30.5L29.5 27.5H28V33H31C32.103 33 33 32.103 33 31V19C33 17.897 32.103 17 31 17Z" fill="white"/>
<rect x="60.5" y="0.5" width="49" height="49" rx="24.5" stroke="white" stroke-opacity="0.25"/>
<path d="M80.6409 23.7168V26.5435H84.9713C84.851 27.6862 83.7082 29.8514 80.6409 29.8514C78.0547 29.8514 75.9497 27.6862 75.9497 25.0399C75.9497 22.3936 77.9344 20.2284 80.5206 20.2284C82.0242 20.2284 83.0467 20.8299 83.588 21.3711L85.693 19.3864C84.6142 18.3627 83.256 17.6819 81.7903 17.4302C80.3245 17.1785 78.8171 17.3672 77.4586 17.9724C76.1001 18.5776 74.9516 19.5722 74.1585 20.8302C73.3653 22.0882 72.9631 23.5532 73.0027 25.0399C73.0027 29.25 76.4309 32.6782 80.6409 32.6782C85.0915 32.6782 87.9784 29.4905 87.9784 25.1602L87.8582 23.7168" fill="white"/>
<path fill-rule="evenodd" clip-rule="evenodd" d="M94.3236 25.6113V28.2877H92.5794V25.6113H89.903V23.8671H92.5794V21.1907H94.3236V23.8671H97V25.6113H94.3236Z" fill="white"/>
<rect x="120.5" y="0.5" width="49" height="49" rx="24.5" stroke="white" stroke-opacity="0.25"/>
<path d="M145 18.4458C147.12 18.4458 147.41 18.4458 148.277 18.4458C149.048 18.4458 149.434 18.6386 149.723 18.7349C150.108 18.9277 150.398 19.0241 150.687 19.3133C150.976 19.6024 151.169 19.8916 151.265 20.2771C151.361 20.5663 151.458 20.9518 151.554 21.7229C151.554 22.5904 151.554 22.7831 151.554 25C151.554 27.2169 151.554 27.4096 151.554 28.2771C151.554 29.0482 151.361 29.4337 151.265 29.7229C151.072 30.1084 150.976 30.3976 150.687 30.6867C150.398 30.9759 150.108 31.1687 149.723 31.2651C149.434 31.3614 149.048 31.4578 148.277 31.5542C147.41 31.5542 147.217 31.5542 145 31.5542C142.783 31.5542 142.59 31.5542 141.723 31.5542C140.952 31.5542 140.566 31.3614 140.277 31.2651C139.892 31.0723 139.602 30.9759 139.313 30.6867C139.024 30.3976 138.831 30.1084 138.735 29.7229C138.639 29.4337 138.542 29.0482 138.446 28.2771C138.446 27.4096 138.446 27.2169 138.446 25C138.446 22.7831 138.446 22.5904 138.446 21.7229C138.446 20.9518 138.639 20.5663 138.735 20.2771C138.928 19.8916 139.024 19.6024 139.313 19.3133C139.602 19.0241 139.892 18.8313 140.277 18.7349C140.566 18.6386 140.952 18.5422 141.723 18.4458C142.59 18.4458 142.88 18.4458 145 18.4458ZM145 17C142.783 17 142.59 17 141.723 17C140.855 17 140.277 17.1928 139.795 17.3855C139.313 17.5783 138.831 17.8675 138.349 18.3494C137.867 18.8313 137.675 19.2169 137.386 19.7952C137.193 20.2771 137.096 20.8554 137 21.7229C137 22.5904 137 22.8795 137 25C137 27.2169 137 27.4096 137 28.2771C137 29.1446 137.193 29.7229 137.386 30.2048C137.578 30.6867 137.867 31.1687 138.349 31.6506C138.831 32.1325 139.217 32.3253 139.795 32.6145C140.277 32.8072 140.855 32.9036 141.723 33C142.59 33 142.88 33 145 33C147.12 33 147.41 33 148.277 33C149.145 33 149.723 32.8072 150.205 32.6145C150.687 32.4217 151.169 32.1325 151.651 31.6506C152.133 31.1687 152.325 30.7831 152.614 30.2048C152.807 29.7229 152.904 29.1446 153 28.2771C153 27.4096 153 27.1205 153 25C153 22.8795 153 22.5904 153 21.7229C153 20.8554 152.807 20.2771 152.614 19.7952C152.422 19.3133 152.133 18.8313 151.651 18.3494C151.169 17.8675 150.783 17.6747 150.205 17.3855C149.723 17.1928 149.145 17.0964 148.277 17C147.41 17 147.217 17 145 17Z" fill="white"/>
<path d="M145 20.8554C142.687 20.8554 140.855 22.6867 140.855 25C140.855 27.3133 142.687 29.1446 145 29.1446C147.313 29.1446 149.145 27.3133 149.145 25C149.145 22.6867 147.313 20.8554 145 20.8554ZM145 27.6988C143.554 27.6988 142.301 26.5422 142.301 25C142.301 23.5542 143.458 22.3012 145 22.3012C146.446 22.3012 147.699 23.4578 147.699 25C147.699 26.4458 146.446 27.6988 145 27.6988Z" fill="white"/>
<path d="M149.241 21.7229C149.773 21.7229 150.205 21.2914 150.205 20.759C150.205 20.2267 149.773 19.7952 149.241 19.7952C148.709 19.7952 148.277 20.2267 148.277 20.759C148.277 21.2914 148.709 21.7229 149.241 21.7229Z" fill="white"/>
<rect x="180.5" y="0.5" width="49" height="49" rx="24.5" stroke="white" stroke-opacity="0.25"/>
<path d="M215.45 19.4286C215.175 18.4286 214.488 17.7143 213.525 17.4286C211.875 17 204.862 17 204.862 17C204.862 17 197.988 17 196.2 17.4286C195.238 17.7143 194.55 18.4286 194.275 19.4286C194 21.2857 194 25 194 25C194 25 194 28.7143 194.413 30.5714C194.688 31.5714 195.375 32.2857 196.337 32.5714C197.987 33 205 33 205 33C205 33 211.875 33 213.662 32.5714C214.625 32.2857 215.313 31.5714 215.588 30.5714C216 28.7143 216 25 216 25C216 25 216 21.2857 215.45 19.4286ZM202.8 28.4286V21.5714L208.575 25L202.8 28.4286Z" fill="white"/>
</svg>
