<svg width="213" height="36" viewBox="0 0 213 36" fill="none" xmlns="http://www.w3.org/2000/svg">
<path d="M8.82 10.82V14.845H16.695V20.06H8.82V24.505H17.745V30H1.96V5.325H17.745V10.82H8.82ZM36.5698 30L31.7748 23.035L27.6798 30H19.8748L27.8898 17.365L19.5948 5.325H27.6798L32.3348 12.115L36.3248 5.325H44.1298L36.2198 17.75L44.6548 30H36.5698ZM66.5038 13.55C66.5038 15.0433 66.1538 16.4083 65.4538 17.645C64.7772 18.8583 63.7388 19.8383 62.3388 20.585C60.9622 21.3083 59.2705 21.67 57.2638 21.67H53.8688V30H47.0088V5.325H57.2638C59.2472 5.325 60.9272 5.675 62.3038 6.375C63.7038 7.075 64.7538 8.04333 65.4538 9.28C66.1538 10.5167 66.5038 11.94 66.5038 13.55ZM56.5988 16.21C58.5355 16.21 59.5038 15.3233 59.5038 13.55C59.5038 11.7533 58.5355 10.855 56.5988 10.855H53.8688V16.21H56.5988ZM76.1198 10.82V14.845H83.9948V20.06H76.1198V24.505H85.0448V30H69.2598V5.325H85.0448V10.82H76.1198ZM100.93 30L96.0296 20.9H95.2946V30H88.4346V5.325H99.2496C101.233 5.325 102.913 5.675 104.29 6.375C105.666 7.05167 106.705 7.99667 107.405 9.21C108.105 10.4 108.455 11.7417 108.455 13.235C108.455 14.915 107.988 16.3967 107.055 17.68C106.145 18.94 104.803 19.8383 103.03 20.375L108.595 30H100.93ZM95.2946 16.21H98.6896C99.6229 16.21 100.323 15.9883 100.79 15.545C101.256 15.1017 101.49 14.46 101.49 13.62C101.49 12.8267 101.245 12.2083 100.755 11.765C100.288 11.2983 99.5996 11.065 98.6896 11.065H95.2946V16.21ZM118.434 5.325V30H111.574V5.325H118.434ZM129.201 10.82V14.845H137.076V20.06H129.201V24.505H138.126V30H122.341V5.325H138.126V10.82H129.201ZM164.371 30H157.511L148.376 16.21V30H141.516V5.325H148.376L157.511 19.29V5.325H164.371V30ZM167.438 17.61C167.438 15.1833 167.94 13.025 168.943 11.135C169.97 9.22167 171.417 7.74 173.283 6.69C175.15 5.61667 177.297 5.08 179.723 5.08C182.803 5.08 185.393 5.90833 187.493 7.565C189.593 9.19833 190.947 11.4267 191.553 14.25H184.168C183.725 13.3167 183.107 12.605 182.313 12.115C181.543 11.625 180.645 11.38 179.618 11.38C178.032 11.38 176.76 11.9517 175.803 13.095C174.87 14.215 174.403 15.72 174.403 17.61C174.403 19.5233 174.87 21.0517 175.803 22.195C176.76 23.315 178.032 23.875 179.618 23.875C180.645 23.875 181.543 23.63 182.313 23.14C183.107 22.65 183.725 21.9383 184.168 21.005H191.553C190.947 23.8283 189.593 26.0683 187.493 27.725C185.393 29.3583 182.803 30.175 179.723 30.175C177.297 30.175 175.15 29.65 173.283 28.6C171.417 27.5267 169.97 26.045 168.943 24.155C167.94 22.2417 167.438 20.06 167.438 17.61ZM201.662 10.82V14.845H209.537V20.06H201.662V24.505H210.587V30H194.802V5.325H210.587V10.82H201.662Z" fill="url(#paint0_linear_2029_2604)"/>
<defs>
<linearGradient id="paint0_linear_2029_2604" x1="106.5" y1="0" x2="106.5" y2="36" gradientUnits="userSpaceOnUse">
<stop stop-color="#5BADFF"/>
<stop offset="1" stop-color="#1373D1"/>
</linearGradient>
</defs>
</svg>
