<svg width="35" height="32" viewBox="0 0 35 32" fill="none" xmlns="http://www.w3.org/2000/svg">
<path d="M30.9537 13.3885H29.8102V13.3332H17.0344V18.6665H25.0569C23.8865 21.7712 20.7415 23.9998 17.0344 23.9998C12.3308 23.9998 8.51719 20.4178 8.51719 15.9998C8.51719 11.5818 12.3308 7.99984 17.0344 7.99984C19.2056 7.99984 21.1809 8.76917 22.6849 10.0258L26.7 6.2545C24.1647 4.03517 20.7735 2.6665 17.0344 2.6665C9.19502 2.6665 2.83905 8.6365 2.83905 15.9998C2.83905 23.3632 9.19502 29.3332 17.0344 29.3332C24.8738 29.3332 31.2298 23.3632 31.2298 15.9998C31.2298 15.1058 31.1318 14.2332 30.9537 13.3885Z" fill="#FFC107"/>
<path d="M4.47583 9.79384L9.13971 13.0065C10.4017 10.0718 13.4579 7.99984 17.0345 7.99984C19.2056 7.99984 21.1809 8.76917 22.6849 10.0258L26.7001 6.2545C24.1648 4.03517 20.7735 2.6665 17.0345 2.6665C11.582 2.6665 6.85355 5.55784 4.47583 9.79384Z" fill="#FF3D00"/>
<path d="M17.0344 29.3333C20.7011 29.3333 24.0328 28.0153 26.5517 25.872L22.1583 22.38C20.6852 23.4322 18.8851 24.0013 17.0344 24C13.3422 24 10.2072 21.7886 9.02614 18.7026L4.39703 22.0526C6.74636 26.3706 11.5174 29.3333 17.0344 29.3333Z" fill="#4CAF50"/>
<path d="M30.9537 13.3888H29.8102V13.3335H17.0344V18.6668H25.0569C24.4971 20.1444 23.4886 21.4356 22.1561 22.3808L22.1582 22.3795L26.5517 25.8715C26.2408 26.1368 31.2298 22.6668 31.2298 16.0002C31.2298 15.1062 31.1318 14.2335 30.9537 13.3888Z" fill="#1976D2"/>
</svg>
