<svg width="205" height="33" viewBox="0 0 205 33" fill="none" xmlns="http://www.w3.org/2000/svg">
<path d="M16 1.125C11.9223 1.125 8.0116 2.74486 5.12823 5.62823C2.24486 8.5116 0.625 12.4223 0.625 16.5C0.625 20.5777 2.24486 24.4884 5.12823 27.3718C8.0116 30.2551 11.9223 31.875 16 31.875C20.0777 31.875 23.9884 30.2551 26.8718 27.3718C29.7551 24.4884 31.375 20.5777 31.375 16.5C31.375 12.4223 29.7551 8.5116 26.8718 5.62823C23.9884 2.74486 20.0777 1.125 16 1.125ZM24.535 17.385C24.3458 17.6339 24.0836 17.8174 23.785 17.91L21.37 18.72C20.632 18.9722 19.9604 19.3875 19.405 19.935C18.8533 20.4871 18.4374 21.1598 18.19 21.9L17.365 24.315C17.254 24.5873 17.0729 24.8254 16.84 25.005C16.591 25.1854 16.2925 25.2849 15.985 25.29C15.676 25.2945 15.3745 25.1941 15.13 25.005C14.8805 24.8259 14.6921 24.5746 14.59 24.285L13.795 21.87C13.5479 21.1272 13.1302 20.4526 12.5754 19.9004C12.0205 19.3481 11.344 18.9336 10.6 18.69L8.2 17.895C7.91039 17.7929 7.65907 17.6045 7.48 17.355C7.29302 17.1094 7.19278 16.8087 7.195 16.5C7.19702 16.1874 7.29666 15.8832 7.48 15.63C7.65227 15.3869 7.90015 15.2075 8.185 15.12L10.6 14.31C11.3465 14.0572 12.0278 13.6423 12.595 13.095C13.15 12.534 13.5655 11.85 13.81 11.1L14.62 8.73C14.7099 8.4462 14.8822 8.19556 15.115 8.01C15.3542 7.80798 15.6569 7.69648 15.97 7.695C16.2676 7.68989 16.56 7.77343 16.81 7.935C17.074 8.0991 17.2748 8.34751 17.38 8.64L18.19 11.085C18.442 11.8395 18.862 12.5265 19.42 13.095C19.9837 13.6392 20.6595 14.0539 21.4 14.31L23.815 15.15C24.102 15.2415 24.3501 15.4263 24.52 15.675C24.6951 15.9258 24.7893 16.2241 24.79 16.53C24.7885 16.833 24.7 17.13 24.535 17.385Z" fill="white"/>
<path d="M48.1464 24.5V8.66H54.4054C54.5594 8.66 54.7428 8.66733 54.9554 8.682C55.1681 8.68933 55.3734 8.71133 55.5714 8.748C56.4294 8.88 57.1481 9.17333 57.7274 9.628C58.3141 10.0827 58.7541 10.6583 59.0474 11.355C59.3408 12.0443 59.4874 12.8107 59.4874 13.654C59.4874 14.49 59.3371 15.2563 59.0364 15.953C58.7431 16.6423 58.3031 17.218 57.7164 17.68C57.1371 18.1347 56.4221 18.428 55.5714 18.56C55.3734 18.5893 55.1681 18.6113 54.9554 18.626C54.7428 18.6407 54.5594 18.648 54.4054 18.648H50.1044V24.5H48.1464ZM50.1044 16.789H54.3394C54.4788 16.789 54.6364 16.7817 54.8124 16.767C54.9958 16.7523 55.1681 16.7267 55.3294 16.69C55.8354 16.5727 56.2461 16.36 56.5614 16.052C56.8841 15.7367 57.1188 15.37 57.2654 14.952C57.4121 14.5267 57.4854 14.094 57.4854 13.654C57.4854 13.214 57.4121 12.785 57.2654 12.367C57.1188 11.9417 56.8841 11.5713 56.5614 11.256C56.2461 10.9407 55.8354 10.728 55.3294 10.618C55.1681 10.574 54.9958 10.5483 54.8124 10.541C54.6364 10.5263 54.4788 10.519 54.3394 10.519H50.1044V16.789ZM61.6816 24.5V12.62H63.4306V15.491L63.1446 15.117C63.2839 14.7503 63.4636 14.413 63.6836 14.105C63.9109 13.797 64.1639 13.544 64.4426 13.346C64.7506 13.0967 65.0989 12.906 65.4876 12.774C65.8763 12.642 66.2723 12.565 66.6756 12.543C67.0789 12.5137 67.4566 12.5393 67.8086 12.62V14.457C67.3979 14.347 66.9469 14.3177 66.4556 14.369C65.9643 14.4203 65.5096 14.6 65.0916 14.908C64.7103 15.1793 64.4133 15.5093 64.2006 15.898C63.9953 16.2867 63.8523 16.7083 63.7716 17.163C63.6909 17.6103 63.6506 18.0687 63.6506 18.538V24.5H61.6816ZM74.7338 24.83C73.5531 24.83 72.5338 24.5623 71.6758 24.027C70.8251 23.4917 70.1688 22.751 69.7068 21.805C69.2448 20.859 69.0138 19.7737 69.0138 18.549C69.0138 17.3023 69.2485 16.2097 69.7178 15.271C70.1871 14.3323 70.8508 13.6027 71.7088 13.082C72.5668 12.554 73.5751 12.29 74.7338 12.29C75.9218 12.29 76.9448 12.5577 77.8028 13.093C78.6608 13.621 79.3171 14.358 79.7718 15.304C80.2338 16.2427 80.4648 17.3243 80.4648 18.549C80.4648 19.7883 80.2338 20.881 79.7718 21.827C79.3098 22.7657 78.6498 23.5027 77.7918 24.038C76.9338 24.566 75.9145 24.83 74.7338 24.83ZM74.7338 22.971C75.9658 22.971 76.8825 22.5603 77.4838 21.739C78.0851 20.9177 78.3858 19.8543 78.3858 18.549C78.3858 17.207 78.0815 16.14 77.4728 15.348C76.8641 14.5487 75.9511 14.149 74.7338 14.149C73.9051 14.149 73.2231 14.336 72.6878 14.71C72.1525 15.084 71.7528 15.601 71.4888 16.261C71.2248 16.921 71.0928 17.6837 71.0928 18.549C71.0928 19.8837 71.4008 20.9543 72.0168 21.761C72.6328 22.5677 73.5385 22.971 74.7338 22.971ZM97.0877 24.5L97.0987 16.899C97.0987 16.0117 96.8603 15.3187 96.3837 14.82C95.9143 14.314 95.302 14.061 94.5467 14.061C94.1067 14.061 93.6887 14.1637 93.2927 14.369C92.8967 14.567 92.574 14.8823 92.3247 15.315C92.0753 15.7403 91.9507 16.2867 91.9507 16.954L90.9167 16.536C90.902 15.6927 91.0743 14.9557 91.4337 14.325C91.8003 13.687 92.299 13.192 92.9297 12.84C93.5603 12.488 94.2717 12.312 95.0637 12.312C96.303 12.312 97.2783 12.6897 97.9897 13.445C98.701 14.193 99.0567 15.2013 99.0567 16.47L99.0457 24.5H97.0877ZM82.8757 24.5V12.62H84.6247V15.799H84.8447V24.5H82.8757ZM89.9927 24.5L90.0037 16.976C90.0037 16.0667 89.769 15.3553 89.2997 14.842C88.8303 14.3213 88.207 14.061 87.4297 14.061C86.6597 14.061 86.0363 14.325 85.5597 14.853C85.083 15.381 84.8447 16.0813 84.8447 16.954L83.8107 16.338C83.8107 15.568 83.994 14.8787 84.3607 14.27C84.7273 13.6613 85.226 13.1847 85.8567 12.84C86.4873 12.488 87.2023 12.312 88.0017 12.312C88.801 12.312 89.4977 12.4807 90.0917 12.818C90.6857 13.1553 91.144 13.6393 91.4667 14.27C91.7893 14.8933 91.9507 15.6377 91.9507 16.503L91.9397 24.5H89.9927ZM107.378 24.83C106.263 24.83 105.325 24.555 104.562 24.005C103.799 23.4477 103.22 22.696 102.824 21.75C102.435 20.7967 102.241 19.7297 102.241 18.549C102.241 17.3537 102.435 16.283 102.824 15.337C103.22 14.391 103.799 13.6467 104.562 13.104C105.332 12.5613 106.274 12.29 107.389 12.29C108.489 12.29 109.435 12.565 110.227 13.115C111.026 13.6577 111.639 14.402 112.064 15.348C112.489 16.294 112.702 17.361 112.702 18.549C112.702 19.737 112.489 20.804 112.064 21.75C111.639 22.696 111.026 23.4477 110.227 24.005C109.435 24.555 108.485 24.83 107.378 24.83ZM101.911 29.78V12.62H103.66V21.365H103.88V29.78H101.911ZM107.136 23.037C107.921 23.037 108.57 22.839 109.083 22.443C109.596 22.047 109.981 21.5117 110.238 20.837C110.495 20.155 110.623 19.3923 110.623 18.549C110.623 17.713 110.495 16.9577 110.238 16.283C109.989 15.6083 109.6 15.073 109.072 14.677C108.551 14.281 107.888 14.083 107.081 14.083C106.311 14.083 105.673 14.2737 105.167 14.655C104.661 15.029 104.283 15.5533 104.034 16.228C103.785 16.8953 103.66 17.669 103.66 18.549C103.66 19.4143 103.781 20.188 104.023 20.87C104.272 21.5447 104.654 22.0763 105.167 22.465C105.68 22.8463 106.337 23.037 107.136 23.037ZM121.746 24.5C121.042 24.6393 120.346 24.6943 119.656 24.665C118.974 24.643 118.366 24.5073 117.83 24.258C117.295 24.0013 116.888 23.6053 116.609 23.07C116.375 22.6007 116.246 22.1277 116.224 21.651C116.21 21.167 116.202 20.6207 116.202 20.012V9.32H118.16V19.924C118.16 20.408 118.164 20.8223 118.171 21.167C118.186 21.5117 118.263 21.8087 118.402 22.058C118.666 22.5273 119.084 22.8023 119.656 22.883C120.236 22.9637 120.932 22.9417 121.746 22.817V24.5ZM113.793 14.237V12.62H121.746V14.237H113.793ZM127.37 24.5L123.058 12.62H125.038L128.371 22.003L131.693 12.62H133.684L129.372 24.5H127.37ZM140.392 24.83C139.226 24.83 138.207 24.5733 137.334 24.06C136.469 23.5393 135.794 22.817 135.31 21.893C134.826 20.9617 134.584 19.8763 134.584 18.637C134.584 17.339 134.822 16.217 135.299 15.271C135.776 14.3177 136.439 13.5843 137.29 13.071C138.148 12.5503 139.153 12.29 140.304 12.29C141.499 12.29 142.515 12.565 143.351 13.115C144.194 13.665 144.825 14.4497 145.243 15.469C145.668 16.4883 145.852 17.702 145.793 19.11H143.813V18.406C143.791 16.9467 143.494 15.8577 142.922 15.139C142.35 14.413 141.499 14.05 140.37 14.05C139.16 14.05 138.24 14.4387 137.609 15.216C136.978 15.9933 136.663 17.108 136.663 18.56C136.663 19.9607 136.978 21.046 137.609 21.816C138.24 22.586 139.138 22.971 140.304 22.971C141.089 22.971 141.771 22.7913 142.35 22.432C142.929 22.0727 143.384 21.5557 143.714 20.881L145.595 21.53C145.133 22.5787 144.436 23.3927 143.505 23.972C142.581 24.544 141.543 24.83 140.392 24.83ZM136.003 19.11V17.537H144.781V19.11H136.003ZM148.242 24.5V12.62H149.991V15.491L149.705 15.117C149.844 14.7503 150.024 14.413 150.244 14.105C150.471 13.797 150.724 13.544 151.003 13.346C151.311 13.0967 151.659 12.906 152.048 12.774C152.437 12.642 152.833 12.565 153.236 12.543C153.639 12.5137 154.017 12.5393 154.369 12.62V14.457C153.958 14.347 153.507 14.3177 153.016 14.369C152.525 14.4203 152.07 14.6 151.652 14.908C151.271 15.1793 150.974 15.5093 150.761 15.898C150.556 16.2867 150.413 16.7083 150.332 17.163C150.251 17.6103 150.211 18.0687 150.211 18.538V24.5H148.242ZM160.507 24.819C159.092 24.819 157.93 24.511 157.02 23.895C156.118 23.2717 155.565 22.4027 155.359 21.288L157.361 20.969C157.523 21.6143 157.893 22.1277 158.472 22.509C159.052 22.883 159.77 23.07 160.628 23.07C161.442 23.07 162.08 22.9013 162.542 22.564C163.004 22.2267 163.235 21.7683 163.235 21.189C163.235 20.8517 163.158 20.5803 163.004 20.375C162.85 20.1623 162.531 19.9643 162.047 19.781C161.571 19.5977 160.848 19.3777 159.88 19.121C158.832 18.8423 158.007 18.5527 157.405 18.252C156.804 17.9513 156.375 17.603 156.118 17.207C155.862 16.811 155.733 16.3307 155.733 15.766C155.733 15.0693 155.924 14.4607 156.305 13.94C156.687 13.412 157.218 13.005 157.9 12.719C158.59 12.433 159.389 12.29 160.298 12.29C161.2 12.29 162.007 12.433 162.718 12.719C163.43 13.005 164.002 13.412 164.434 13.94C164.874 14.4607 165.135 15.0693 165.215 15.766L163.213 16.129C163.118 15.491 162.81 14.9887 162.289 14.622C161.776 14.2553 161.112 14.061 160.298 14.039C159.528 14.0097 158.901 14.1453 158.417 14.446C157.941 14.7467 157.702 15.1537 157.702 15.667C157.702 15.953 157.79 16.1987 157.966 16.404C158.15 16.6093 158.483 16.8037 158.967 16.987C159.459 17.1703 160.17 17.3793 161.101 17.614C162.15 17.878 162.975 18.1677 163.576 18.483C164.185 18.791 164.618 19.1577 164.874 19.583C165.131 20.001 165.259 20.518 165.259 21.134C165.259 22.278 164.838 23.18 163.994 23.84C163.151 24.4927 161.989 24.819 160.507 24.819ZM172.834 24.83C171.668 24.83 170.648 24.5733 169.776 24.06C168.91 23.5393 168.236 22.817 167.752 21.893C167.268 20.9617 167.026 19.8763 167.026 18.637C167.026 17.339 167.264 16.217 167.741 15.271C168.217 14.3177 168.881 13.5843 169.732 13.071C170.59 12.5503 171.594 12.29 172.746 12.29C173.941 12.29 174.957 12.565 175.793 13.115C176.636 13.665 177.267 14.4497 177.685 15.469C178.11 16.4883 178.293 17.702 178.235 19.11H176.255V18.406C176.233 16.9467 175.936 15.8577 175.364 15.139C174.792 14.413 173.941 14.05 172.812 14.05C171.602 14.05 170.681 14.4387 170.051 15.216C169.42 15.9933 169.105 17.108 169.105 18.56C169.105 19.9607 169.42 21.046 170.051 21.816C170.681 22.586 171.58 22.971 172.746 22.971C173.53 22.971 174.212 22.7913 174.792 22.432C175.371 22.0727 175.826 21.5557 176.156 20.881L178.037 21.53C177.575 22.5787 176.878 23.3927 175.947 23.972C175.023 24.544 173.985 24.83 172.834 24.83ZM168.445 19.11V17.537H177.223V19.11H168.445Z" fill="white"/>
<path d="M194.594 20.656H187.818L186.63 24H184.584L190.128 8.754H192.328L197.85 24H195.782L194.594 20.656ZM194.022 19.072L191.206 11.196L188.39 19.072H194.022ZM202.479 8.754V24H200.477V8.754H202.479Z" fill="white"/>
</svg>
