<svg width="33" height="22" viewBox="0 0 33 22" fill="none" xmlns="http://www.w3.org/2000/svg">
<path fill-rule="evenodd" clip-rule="evenodd" d="M9.92032 0.0140862C7.32626 -0.157526 5.26078 1.28714 3.81656 3.10154C2.36421 4.92687 1.34123 7.34504 0.77525 9.76009C0.212526 12.1736 0.0710316 14.7353 0.524789 16.8804C0.967161 18.9647 2.09261 21.1083 4.4606 21.787C6.71963 22.4344 8.74609 21.514 10.2944 20.2643C11.8459 19.0131 13.1893 17.2283 14.2725 15.5044C15.1215 14.1518 15.8468 12.7742 16.416 11.5979C16.9853 12.7727 17.7106 14.1518 18.558 15.5044C19.6411 17.2283 20.9845 19.0131 22.5361 20.2643C24.0844 21.514 26.1108 22.4344 28.3699 21.787C30.7378 21.1083 31.8633 18.9647 32.3057 16.8804C32.7611 14.7353 32.6179 12.1736 32.0552 9.76009C31.4892 7.34504 30.4662 4.92531 29.0139 3.10154C27.5713 1.28714 25.5058 -0.159086 22.9118 0.0140862C20.0916 0.201299 18.0814 2.30589 16.9153 3.89564C16.7423 4.13322 16.5758 4.37512 16.416 4.62109C16.2559 4.37501 16.0888 4.1331 15.9151 3.89564C14.749 2.30433 12.7404 0.20286 9.92032 0.0140862ZM14.5555 7.85364C14.0952 8.96912 12.9779 11.5168 11.4849 13.8959C10.4749 15.506 9.34947 16.9506 8.19963 17.8773C7.04978 18.8056 6.14715 19.0131 5.39414 18.7978C4.7501 18.6137 4.06539 17.9241 3.71247 16.2595C3.37419 14.6573 3.45713 12.5542 3.94992 10.4434C4.44434 8.33259 5.31282 6.36529 6.40249 4.99396C7.50029 3.61326 8.62899 3.0563 9.69426 3.12807C10.9401 3.21075 12.1826 4.22794 13.2528 5.68977C13.8513 6.5057 14.2985 7.331 14.5538 7.85208L14.5555 7.85364ZM18.2766 7.85364C18.7352 8.96912 19.8542 11.5168 21.3456 13.8959C22.3572 15.506 23.4826 16.9506 24.6308 17.8773C25.7823 18.8056 26.6833 19.0131 27.4379 18.7978C28.0804 18.6137 28.7651 17.9241 29.118 16.2595C29.4579 14.6573 29.375 12.5542 28.8805 10.4434C28.3861 8.33259 27.5193 6.36529 26.428 4.99396C25.3302 3.61326 24.2031 3.0563 23.1362 3.12807C21.8904 3.21075 20.6479 4.22794 19.5777 5.68977C19.082 6.37451 18.6468 7.0978 18.2766 7.85208V7.85364Z" fill="#5BADFF"/>
</svg>
