<svg width="179" height="27" viewBox="0 0 179 27" fill="none" xmlns="http://www.w3.org/2000/svg">
<path d="M19.703 9.55C19.703 11.0433 19.353 12.4083 18.653 13.645C17.9764 14.8583 16.938 15.8383 15.538 16.585C14.1614 17.3083 12.4697 17.67 10.463 17.67H7.06805V26H0.208047V1.325H10.463C12.4464 1.325 14.1264 1.675 15.503 2.375C16.903 3.075 17.953 4.04333 18.653 5.28C19.353 6.51667 19.703 7.94 19.703 9.55ZM9.79805 12.21C11.7347 12.21 12.703 11.3233 12.703 9.55C12.703 7.75333 11.7347 6.855 9.79805 6.855H7.06805V12.21H9.79805ZM34.954 26L30.054 16.9H29.319V26H22.459V1.325H33.274C35.2574 1.325 36.9374 1.675 38.314 2.375C39.6907 3.05167 40.729 3.99667 41.429 5.21C42.129 6.4 42.479 7.74167 42.479 9.235C42.479 10.915 42.0124 12.3967 41.079 13.68C40.169 14.94 38.8274 15.8383 37.054 16.375L42.619 26H34.954ZM29.319 12.21H32.714C33.6474 12.21 34.3474 11.9883 34.814 11.545C35.2807 11.1017 35.514 10.46 35.514 9.62C35.514 8.82667 35.269 8.20833 34.779 7.765C34.3124 7.29833 33.624 7.065 32.714 7.065H29.319V12.21ZM57.4287 26.245C55.1187 26.245 52.9953 25.7083 51.0587 24.635C49.122 23.5383 47.582 22.0333 46.4387 20.12C45.3187 18.1833 44.7587 16.0017 44.7587 13.575C44.7587 11.1483 45.3187 8.97833 46.4387 7.065C47.582 5.12833 49.122 3.62333 51.0587 2.55C52.9953 1.47667 55.1187 0.939999 57.4287 0.939999C59.762 0.939999 61.8853 1.47667 63.7987 2.55C65.7353 3.62333 67.2637 5.12833 68.3837 7.065C69.5037 8.97833 70.0637 11.1483 70.0637 13.575C70.0637 16.0017 69.5037 18.1833 68.3837 20.12C67.2637 22.0333 65.7353 23.5383 63.7987 24.635C61.862 25.7083 59.7387 26.245 57.4287 26.245ZM57.4287 19.875C59.1787 19.875 60.5553 19.3033 61.5587 18.16C62.5853 17.0167 63.0987 15.4883 63.0987 13.575C63.0987 11.615 62.5853 10.075 61.5587 8.955C60.5553 7.81167 59.1787 7.24 57.4287 7.24C55.6553 7.24 54.267 7.81167 53.2637 8.955C52.2603 10.075 51.7587 11.615 51.7587 13.575C51.7587 15.5117 52.2603 17.0517 53.2637 18.195C54.267 19.315 55.6553 19.875 57.4287 19.875ZM89.4925 1.325V17.67C89.4925 20.4467 88.7342 22.57 87.2175 24.04C85.7242 25.51 83.6592 26.245 81.0225 26.245C78.2225 26.245 75.9825 25.4633 74.3025 23.9C72.6458 22.3367 71.8175 20.085 71.8175 17.145H78.6075C78.6308 19.0817 79.3425 20.05 80.7425 20.05C82.0025 20.05 82.6325 19.2567 82.6325 17.67V1.325H89.4925ZM100.447 6.82V10.845H108.322V16.06H100.447V20.505H109.372V26H93.587V1.325H109.372V6.82H100.447ZM111.922 13.61C111.922 11.1833 112.423 9.025 113.427 7.135C114.453 5.22167 115.9 3.74 117.767 2.69C119.633 1.61667 121.78 1.08 124.207 1.08C127.287 1.08 129.877 1.90833 131.977 3.565C134.077 5.19833 135.43 7.42667 136.037 10.25H128.652C128.208 9.31667 127.59 8.605 126.797 8.115C126.027 7.625 125.128 7.38 124.102 7.38C122.515 7.38 121.243 7.95167 120.287 9.095C119.353 10.215 118.887 11.72 118.887 13.61C118.887 15.5233 119.353 17.0517 120.287 18.195C121.243 19.315 122.515 19.875 124.102 19.875C125.128 19.875 126.027 19.63 126.797 19.14C127.59 18.65 128.208 17.9383 128.652 17.005H136.037C135.43 19.8283 134.077 22.0683 131.977 23.725C129.877 25.3583 127.287 26.175 124.207 26.175C121.78 26.175 119.633 25.65 117.767 24.6C115.9 23.5267 114.453 22.045 113.427 20.155C112.423 18.2417 111.922 16.06 111.922 13.61ZM157.87 1.325V6.785H151.29V26H144.43V6.785H137.92V1.325H157.87ZM169.718 26.245C166.848 26.245 164.492 25.5683 162.648 24.215C160.805 22.8383 159.813 20.8783 159.673 18.335H166.988C167.058 19.1983 167.315 19.8283 167.758 20.225C168.202 20.6217 168.773 20.82 169.473 20.82C170.103 20.82 170.617 20.6683 171.013 20.365C171.433 20.0383 171.643 19.595 171.643 19.035C171.643 18.3117 171.305 17.7517 170.628 17.355C169.952 16.9583 168.855 16.515 167.338 16.025C165.728 15.4883 164.422 14.975 163.418 14.485C162.438 13.9717 161.575 13.2367 160.828 12.28C160.105 11.3 159.743 10.0283 159.743 8.465C159.743 6.87833 160.14 5.525 160.933 4.405C161.727 3.26167 162.823 2.39833 164.223 1.815C165.623 1.23167 167.21 0.939999 168.983 0.939999C171.853 0.939999 174.14 1.61667 175.843 2.97C177.57 4.3 178.492 6.17833 178.608 8.605H171.153C171.13 7.85833 170.897 7.29833 170.453 6.925C170.033 6.55167 169.485 6.365 168.808 6.365C168.295 6.365 167.875 6.51667 167.548 6.82C167.222 7.12333 167.058 7.555 167.058 8.115C167.058 8.58167 167.233 8.99 167.583 9.34C167.957 9.66667 168.412 9.95833 168.948 10.215C169.485 10.4483 170.278 10.7517 171.328 11.125C172.892 11.6617 174.175 12.1983 175.178 12.735C176.205 13.2483 177.08 13.9833 177.803 14.94C178.55 15.8733 178.923 17.0633 178.923 18.51C178.923 19.98 178.55 21.2983 177.803 22.465C177.08 23.6317 176.018 24.5533 174.618 25.23C173.242 25.9067 171.608 26.245 169.718 26.245Z" fill="url(#paint0_linear_2029_2621)"/>
<defs>
<linearGradient id="paint0_linear_2029_2621" x1="89.248" y1="-4" x2="89.248" y2="32" gradientUnits="userSpaceOnUse">
<stop stop-color="#FF8660"/>
<stop offset="1" stop-color="#D5491D"/>
</linearGradient>
</defs>
</svg>
