<svg width="670" height="127" viewBox="0 0 670 127" fill="none" xmlns="http://www.w3.org/2000/svg">
<path d="M161.376 12.225V51H150.596V12.225H161.376ZM176.282 35.545C176.282 32.355 176.85 29.5683 177.987 27.185C179.16 24.8017 180.755 22.9683 182.772 21.685C184.789 20.4017 187.025 19.76 189.482 19.76C191.462 19.76 193.222 20.1817 194.762 21.025C196.339 21.8317 197.567 22.95 198.447 24.38V10.3H209.282V51H198.447V46.71C197.604 48.14 196.412 49.2767 194.872 50.12C193.332 50.9633 191.517 51.385 189.427 51.385C186.97 51.385 184.734 50.7433 182.717 49.46C180.737 48.1767 179.16 46.3433 177.987 43.96C176.85 41.54 176.282 38.735 176.282 35.545ZM198.502 35.545C198.502 33.565 197.952 32.0067 196.852 30.87C195.789 29.7333 194.469 29.165 192.892 29.165C191.279 29.165 189.94 29.7333 188.877 30.87C187.814 31.97 187.282 33.5283 187.282 35.545C187.282 37.525 187.814 39.1017 188.877 40.275C189.94 41.4117 191.279 41.98 192.892 41.98C194.469 41.98 195.789 41.4117 196.852 40.275C197.952 39.1383 198.502 37.5617 198.502 35.545ZM229.78 51.385C226.7 51.385 223.931 50.7433 221.475 49.46C219.055 48.1767 217.148 46.3433 215.755 43.96C214.361 41.5767 213.665 38.7717 213.665 35.545C213.665 32.355 214.361 29.5683 215.755 27.185C217.185 24.8017 219.11 22.9683 221.53 21.685C223.986 20.4017 226.755 19.76 229.835 19.76C232.915 19.76 235.665 20.4017 238.085 21.685C240.541 22.9683 242.466 24.8017 243.86 27.185C245.29 29.5683 246.005 32.355 246.005 35.545C246.005 38.735 245.29 41.54 243.86 43.96C242.466 46.3433 240.541 48.1767 238.085 49.46C235.628 50.7433 232.86 51.385 229.78 51.385ZM229.78 42.035C231.283 42.035 232.53 41.485 233.52 40.385C234.546 39.2483 235.06 37.635 235.06 35.545C235.06 33.455 234.546 31.86 233.52 30.76C232.53 29.66 231.301 29.11 229.835 29.11C228.368 29.11 227.14 29.66 226.15 30.76C225.16 31.86 224.665 33.455 224.665 35.545C224.665 37.6717 225.141 39.285 226.095 40.385C227.048 41.485 228.276 42.035 229.78 42.035ZM259.158 35.545C259.158 32.355 259.818 29.5683 261.138 27.185C262.458 24.8017 264.291 22.9683 266.638 21.685C269.021 20.4017 271.735 19.76 274.778 19.76C278.701 19.76 282.001 20.8417 284.678 23.005C287.355 25.1317 289.078 28.12 289.848 31.97H278.408C277.748 29.9533 276.465 28.945 274.558 28.945C273.201 28.945 272.12 29.5133 271.313 30.65C270.543 31.75 270.158 33.3817 270.158 35.545C270.158 37.7083 270.543 39.3583 271.313 40.495C272.12 41.6317 273.201 42.2 274.558 42.2C276.501 42.2 277.785 41.1917 278.408 39.175H289.848C289.078 42.9883 287.355 45.9767 284.678 48.14C282.001 50.3033 278.701 51.385 274.778 51.385C271.735 51.385 269.021 50.7433 266.638 49.46C264.291 48.1767 262.458 46.3433 261.138 43.96C259.818 41.5767 259.158 38.7717 259.158 35.545ZM308.681 51.385C305.601 51.385 302.833 50.7433 300.376 49.46C297.956 48.1767 296.049 46.3433 294.656 43.96C293.263 41.5767 292.566 38.7717 292.566 35.545C292.566 32.355 293.263 29.5683 294.656 27.185C296.086 24.8017 298.011 22.9683 300.431 21.685C302.888 20.4017 305.656 19.76 308.736 19.76C311.816 19.76 314.566 20.4017 316.986 21.685C319.443 22.9683 321.368 24.8017 322.761 27.185C324.191 29.5683 324.906 32.355 324.906 35.545C324.906 38.735 324.191 41.54 322.761 43.96C321.368 46.3433 319.443 48.1767 316.986 49.46C314.529 50.7433 311.761 51.385 308.681 51.385ZM308.681 42.035C310.184 42.035 311.431 41.485 312.421 40.385C313.448 39.2483 313.961 37.635 313.961 35.545C313.961 33.455 313.448 31.86 312.421 30.76C311.431 29.66 310.203 29.11 308.736 29.11C307.269 29.11 306.041 29.66 305.051 30.76C304.061 31.86 303.566 33.455 303.566 35.545C303.566 37.6717 304.043 39.285 304.996 40.385C305.949 41.485 307.178 42.035 308.681 42.035ZM327.532 35.545C327.532 32.355 328.1 29.5683 329.237 27.185C330.41 24.8017 332.005 22.9683 334.022 21.685C336.039 20.4017 338.275 19.76 340.732 19.76C342.712 19.76 344.472 20.1817 346.012 21.025C347.589 21.8317 348.817 22.95 349.697 24.38V10.3H360.532V51H349.697V46.71C348.854 48.14 347.662 49.2767 346.122 50.12C344.582 50.9633 342.767 51.385 340.677 51.385C338.22 51.385 335.984 50.7433 333.967 49.46C331.987 48.1767 330.41 46.3433 329.237 43.96C328.1 41.54 327.532 38.735 327.532 35.545ZM349.752 35.545C349.752 33.565 349.202 32.0067 348.102 30.87C347.039 29.7333 345.719 29.165 344.142 29.165C342.529 29.165 341.19 29.7333 340.127 30.87C339.064 31.97 338.532 33.5283 338.532 35.545C338.532 37.525 339.064 39.1017 340.127 40.275C341.19 41.4117 342.529 41.98 344.142 41.98C345.719 41.98 347.039 41.4117 348.102 40.275C349.202 39.1383 349.752 37.5617 349.752 35.545ZM396.155 35.215C396.155 36.0583 396.1 36.9017 395.99 37.745H375.585C375.695 39.4317 376.153 40.6967 376.96 41.54C377.803 42.3467 378.866 42.75 380.15 42.75C381.946 42.75 383.23 41.9433 384 40.33H395.495C395.018 42.4567 394.083 44.3633 392.69 46.05C391.333 47.7 389.61 49.0017 387.52 49.955C385.43 50.9083 383.12 51.385 380.59 51.385C377.546 51.385 374.833 50.7433 372.45 49.46C370.103 48.1767 368.251 46.3433 366.895 43.96C365.575 41.5767 364.915 38.7717 364.915 35.545C364.915 32.3183 365.575 29.5317 366.895 27.185C368.215 24.8017 370.048 22.9683 372.395 21.685C374.778 20.4017 377.51 19.76 380.59 19.76C383.633 19.76 386.328 20.3833 388.675 21.63C391.021 22.8767 392.855 24.6733 394.175 27.02C395.495 29.33 396.155 32.0617 396.155 35.215ZM385.155 32.52C385.155 31.2 384.715 30.1733 383.835 29.44C382.955 28.67 381.855 28.285 380.535 28.285C379.215 28.285 378.133 28.6517 377.29 29.385C376.446 30.0817 375.896 31.1267 375.64 32.52H385.155ZM409.334 35.545C409.334 32.355 409.902 29.5683 411.039 27.185C412.212 24.8017 413.789 22.9683 415.769 21.685C417.785 20.4017 420.022 19.76 422.479 19.76C424.605 19.76 426.439 20.1817 427.979 21.025C429.519 21.8683 430.71 23.005 431.554 24.435V20.145H442.334V51H431.554V46.71C430.71 48.14 429.5 49.2767 427.924 50.12C426.384 50.9633 424.569 51.385 422.479 51.385C420.022 51.385 417.785 50.7433 415.769 49.46C413.789 48.1767 412.212 46.3433 411.039 43.96C409.902 41.54 409.334 38.735 409.334 35.545ZM431.554 35.545C431.554 33.565 431.004 32.0067 429.904 30.87C428.84 29.7333 427.52 29.165 425.944 29.165C424.33 29.165 422.992 29.7333 421.929 30.87C420.865 31.97 420.334 33.5283 420.334 35.545C420.334 37.525 420.865 39.1017 421.929 40.275C422.992 41.4117 424.33 41.98 425.944 41.98C427.52 41.98 428.84 41.4117 429.904 40.275C431.004 39.1383 431.554 37.5617 431.554 35.545ZM468.661 19.87C472.218 19.87 475.041 21.0617 477.131 23.445C479.221 25.7917 480.266 28.9817 480.266 33.015V51H469.486V34.445C469.486 32.685 469.028 31.31 468.111 30.32C467.195 29.2933 465.966 28.78 464.426 28.78C462.813 28.78 461.548 29.2933 460.631 30.32C459.715 31.31 459.256 32.685 459.256 34.445V51H448.476V20.145H459.256V24.545C460.21 23.1517 461.493 22.0333 463.106 21.19C464.72 20.31 466.571 19.87 468.661 19.87ZM484.422 35.545C484.422 32.355 484.99 29.5683 486.127 27.185C487.3 24.8017 488.895 22.9683 490.912 21.685C492.928 20.4017 495.165 19.76 497.622 19.76C499.602 19.76 501.362 20.1817 502.902 21.025C504.478 21.8317 505.707 22.95 506.587 24.38V10.3H517.422V51H506.587V46.71C505.743 48.14 504.552 49.2767 503.012 50.12C501.472 50.9633 499.657 51.385 497.567 51.385C495.11 51.385 492.873 50.7433 490.857 49.46C488.877 48.1767 487.3 46.3433 486.127 43.96C484.99 41.54 484.422 38.735 484.422 35.545ZM506.642 35.545C506.642 33.565 506.092 32.0067 504.992 30.87C503.928 29.7333 502.608 29.165 501.032 29.165C499.418 29.165 498.08 29.7333 497.017 30.87C495.953 31.97 495.422 33.5283 495.422 35.545C495.422 37.525 495.953 39.1017 497.017 40.275C498.08 41.4117 499.418 41.98 501.032 41.98C502.608 41.98 503.928 41.4117 504.992 40.275C506.092 39.1383 506.642 37.5617 506.642 35.545ZM49.8657 82.87C53.7524 82.87 56.7957 84.0433 58.9957 86.39C61.2324 88.7367 62.3507 91.945 62.3507 96.015V114H51.5707V97.445C51.5707 95.795 51.1124 94.5117 50.1957 93.595C49.279 92.6783 48.0324 92.22 46.4557 92.22C44.879 92.22 43.6324 92.6783 42.7157 93.595C41.799 94.5117 41.3407 95.795 41.3407 97.445V114H30.5607V97.445C30.5607 95.795 30.1024 94.5117 29.1857 93.595C28.3057 92.6783 27.0774 92.22 25.5007 92.22C23.8874 92.22 22.6224 92.6783 21.7057 93.595C20.789 94.5117 20.3307 95.795 20.3307 97.445V114H9.5507V83.145H20.3307V87.215C21.284 85.895 22.5124 84.85 24.0157 84.08C25.5557 83.2733 27.3157 82.87 29.2957 82.87C31.569 82.87 33.5857 83.365 35.3457 84.355C37.1424 85.345 38.554 86.7383 39.5807 88.535C40.6807 86.8483 42.129 85.4917 43.9257 84.465C45.7224 83.4017 47.7024 82.87 49.8657 82.87ZM66.4968 98.545C66.4968 95.355 67.0651 92.5683 68.2018 90.185C69.3751 87.8017 70.9518 85.9683 72.9318 84.685C74.9484 83.4017 77.1851 82.76 79.6418 82.76C81.7684 82.76 83.6018 83.1817 85.1418 84.025C86.6818 84.8683 87.8734 86.005 88.7168 87.435V83.145H99.4968V114H88.7168V109.71C87.8734 111.14 86.6634 112.277 85.0868 113.12C83.5468 113.963 81.7318 114.385 79.6418 114.385C77.1851 114.385 74.9484 113.743 72.9318 112.46C70.9518 111.177 69.3751 109.343 68.2018 106.96C67.0651 104.54 66.4968 101.735 66.4968 98.545ZM88.7168 98.545C88.7168 96.565 88.1668 95.0067 87.0668 93.87C86.0034 92.7333 84.6834 92.165 83.1068 92.165C81.4934 92.165 80.1551 92.7333 79.0918 93.87C78.0284 94.97 77.4968 96.5283 77.4968 98.545C77.4968 100.525 78.0284 102.102 79.0918 103.275C80.1551 104.412 81.4934 104.98 83.1068 104.98C84.6834 104.98 86.0034 104.412 87.0668 103.275C88.1668 102.138 88.7168 100.562 88.7168 98.545ZM124.945 114L116.42 101.35V114H105.64V73.3H116.42V95.245L124.945 83.145H137.87L125.715 98.655L138.09 114H124.945ZM170.73 98.215C170.73 99.0583 170.675 99.9017 170.565 100.745H150.16C150.27 102.432 150.728 103.697 151.535 104.54C152.378 105.347 153.442 105.75 154.725 105.75C156.522 105.75 157.805 104.943 158.575 103.33H170.07C169.593 105.457 168.658 107.363 167.265 109.05C165.908 110.7 164.185 112.002 162.095 112.955C160.005 113.908 157.695 114.385 155.165 114.385C152.122 114.385 149.408 113.743 147.025 112.46C144.678 111.177 142.827 109.343 141.47 106.96C140.15 104.577 139.49 101.772 139.49 98.545C139.49 95.3183 140.15 92.5317 141.47 90.185C142.79 87.8017 144.623 85.9683 146.97 84.685C149.353 83.4017 152.085 82.76 155.165 82.76C158.208 82.76 160.903 83.3833 163.25 84.63C165.597 85.8767 167.43 87.6733 168.75 90.02C170.07 92.33 170.73 95.0617 170.73 98.215ZM159.73 95.52C159.73 94.2 159.29 93.1733 158.41 92.44C157.53 91.67 156.43 91.285 155.11 91.285C153.79 91.285 152.708 91.6517 151.865 92.385C151.022 93.0817 150.472 94.1267 150.215 95.52H159.73ZM183.909 98.545C183.909 95.355 184.569 92.5683 185.889 90.185C187.209 87.8017 189.042 85.9683 191.389 84.685C193.772 83.4017 196.486 82.76 199.529 82.76C203.452 82.76 206.752 83.8417 209.429 86.005C212.106 88.1317 213.829 91.12 214.599 94.97H203.159C202.499 92.9533 201.216 91.945 199.309 91.945C197.952 91.945 196.871 92.5133 196.064 93.65C195.294 94.75 194.909 96.3817 194.909 98.545C194.909 100.708 195.294 102.358 196.064 103.495C196.871 104.632 197.952 105.2 199.309 105.2C201.252 105.2 202.536 104.192 203.159 102.175H214.599C213.829 105.988 212.106 108.977 209.429 111.14C206.752 113.303 203.452 114.385 199.529 114.385C196.486 114.385 193.772 113.743 191.389 112.46C189.042 111.177 187.209 109.343 185.889 106.96C184.569 104.577 183.909 101.772 183.909 98.545ZM233.432 114.385C230.352 114.385 227.584 113.743 225.127 112.46C222.707 111.177 220.8 109.343 219.407 106.96C218.014 104.577 217.317 101.772 217.317 98.545C217.317 95.355 218.014 92.5683 219.407 90.185C220.837 87.8017 222.762 85.9683 225.182 84.685C227.639 83.4017 230.407 82.76 233.487 82.76C236.567 82.76 239.317 83.4017 241.737 84.685C244.194 85.9683 246.119 87.8017 247.512 90.185C248.942 92.5683 249.657 95.355 249.657 98.545C249.657 101.735 248.942 104.54 247.512 106.96C246.119 109.343 244.194 111.177 241.737 112.46C239.28 113.743 236.512 114.385 233.432 114.385ZM233.432 105.035C234.935 105.035 236.182 104.485 237.172 103.385C238.199 102.248 238.712 100.635 238.712 98.545C238.712 96.455 238.199 94.86 237.172 93.76C236.182 92.66 234.954 92.11 233.487 92.11C232.02 92.11 230.792 92.66 229.802 93.76C228.812 94.86 228.317 96.455 228.317 98.545C228.317 100.672 228.794 102.285 229.747 103.385C230.7 104.485 231.929 105.035 233.432 105.035ZM274.228 82.87C277.785 82.87 280.608 84.0617 282.698 86.445C284.788 88.7917 285.833 91.9817 285.833 96.015V114H275.053V97.445C275.053 95.685 274.595 94.31 273.678 93.32C272.761 92.2933 271.533 91.78 269.993 91.78C268.38 91.78 267.115 92.2933 266.198 93.32C265.281 94.31 264.823 95.685 264.823 97.445V114H254.043V83.145H264.823V87.545C265.776 86.1517 267.06 85.0333 268.673 84.19C270.286 83.31 272.138 82.87 274.228 82.87ZM309.953 104.815V114H305.278C297.395 114 293.453 110.095 293.453 102.285V92.11H289.658V83.145H293.453V75.665H304.288V83.145H309.898V92.11H304.288V102.45C304.288 103.293 304.471 103.898 304.838 104.265C305.241 104.632 305.901 104.815 306.818 104.815H309.953ZM344.377 98.215C344.377 99.0583 344.322 99.9017 344.212 100.745H323.807C323.917 102.432 324.376 103.697 325.182 104.54C326.026 105.347 327.089 105.75 328.372 105.75C330.169 105.75 331.452 104.943 332.222 103.33H343.717C343.241 105.457 342.306 107.363 340.912 109.05C339.556 110.7 337.832 112.002 335.742 112.955C333.652 113.908 331.342 114.385 328.812 114.385C325.769 114.385 323.056 113.743 320.672 112.46C318.326 111.177 316.474 109.343 315.117 106.96C313.797 104.577 313.137 101.772 313.137 98.545C313.137 95.3183 313.797 92.5317 315.117 90.185C316.437 87.8017 318.271 85.9683 320.617 84.685C323.001 83.4017 325.732 82.76 328.812 82.76C331.856 82.76 334.551 83.3833 336.897 84.63C339.244 85.8767 341.077 87.6733 342.397 90.02C343.717 92.33 344.377 95.0617 344.377 98.215ZM333.377 95.52C333.377 94.2 332.937 93.1733 332.057 92.44C331.177 91.67 330.077 91.285 328.757 91.285C327.437 91.285 326.356 91.6517 325.512 92.385C324.669 93.0817 324.119 94.1267 323.862 95.52H333.377ZM368.974 82.87C372.531 82.87 375.354 84.0617 377.444 86.445C379.534 88.7917 380.579 91.9817 380.579 96.015V114H369.799V97.445C369.799 95.685 369.341 94.31 368.424 93.32C367.507 92.2933 366.279 91.78 364.739 91.78C363.126 91.78 361.861 92.2933 360.944 93.32C360.027 94.31 359.569 95.685 359.569 97.445V114H348.789V83.145H359.569V87.545C360.522 86.1517 361.806 85.0333 363.419 84.19C365.032 83.31 366.884 82.87 368.974 82.87ZM404.699 104.815V114H400.024C392.141 114 388.199 110.095 388.199 102.285V92.11H384.404V83.145H388.199V75.665H399.034V83.145H404.644V92.11H399.034V102.45C399.034 103.293 399.217 103.898 399.584 104.265C399.987 104.632 400.647 104.815 401.564 104.815H404.699Z" fill="white"/>
<path d="M418.411 98.545C418.411 95.355 418.979 92.5683 420.116 90.185C421.289 87.8017 422.866 85.9683 424.846 84.685C426.862 83.4017 429.099 82.76 431.556 82.76C433.682 82.76 435.516 83.1817 437.056 84.025C438.596 84.8683 439.787 86.005 440.631 87.435V83.145H451.411V114H440.631V109.71C439.787 111.14 438.577 112.277 437.001 113.12C435.461 113.963 433.646 114.385 431.556 114.385C429.099 114.385 426.862 113.743 424.846 112.46C422.866 111.177 421.289 109.343 420.116 106.96C418.979 104.54 418.411 101.735 418.411 98.545ZM440.631 98.545C440.631 96.565 440.081 95.0067 438.981 93.87C437.917 92.7333 436.597 92.165 435.021 92.165C433.407 92.165 432.069 92.7333 431.006 93.87C429.942 94.97 429.411 96.5283 429.411 98.545C429.411 100.525 429.942 102.102 431.006 103.275C432.069 104.412 433.407 104.98 435.021 104.98C436.597 104.98 437.917 104.412 438.981 103.275C440.081 102.138 440.631 100.562 440.631 98.545ZM468.334 87.435C469.177 85.9683 470.369 84.8317 471.909 84.025C473.449 83.1817 475.264 82.76 477.354 82.76C479.81 82.76 482.029 83.4017 484.009 84.685C486.025 85.9683 487.602 87.8017 488.739 90.185C489.912 92.5683 490.499 95.355 490.499 98.545C490.499 101.735 489.912 104.54 488.739 106.96C487.602 109.343 486.025 111.177 484.009 112.46C482.029 113.743 479.81 114.385 477.354 114.385C475.264 114.385 473.449 113.982 471.909 113.175C470.369 112.332 469.177 111.177 468.334 109.71V114H457.554V73.3H468.334V87.435ZM479.554 98.545C479.554 96.5283 479.004 94.97 477.904 93.87C476.84 92.7333 475.52 92.165 473.944 92.165C472.367 92.165 471.029 92.7333 469.929 93.87C468.865 95.0067 468.334 96.565 468.334 98.545C468.334 100.562 468.865 102.138 469.929 103.275C471.029 104.412 472.367 104.98 473.944 104.98C475.52 104.98 476.84 104.412 477.904 103.275C479.004 102.102 479.554 100.525 479.554 98.545ZM509.291 114.385C506.211 114.385 503.443 113.743 500.986 112.46C498.566 111.177 496.66 109.343 495.266 106.96C493.873 104.577 493.176 101.772 493.176 98.545C493.176 95.355 493.873 92.5683 495.266 90.185C496.696 87.8017 498.621 85.9683 501.041 84.685C503.498 83.4017 506.266 82.76 509.346 82.76C512.426 82.76 515.176 83.4017 517.596 84.685C520.053 85.9683 521.978 87.8017 523.371 90.185C524.801 92.5683 525.516 95.355 525.516 98.545C525.516 101.735 524.801 104.54 523.371 106.96C521.978 109.343 520.053 111.177 517.596 112.46C515.14 113.743 512.371 114.385 509.291 114.385ZM509.291 105.035C510.795 105.035 512.041 104.485 513.031 103.385C514.058 102.248 514.571 100.635 514.571 98.545C514.571 96.455 514.058 94.86 513.031 93.76C512.041 92.66 510.813 92.11 509.346 92.11C507.88 92.11 506.651 92.66 505.661 93.76C504.671 94.86 504.176 96.455 504.176 98.545C504.176 100.672 504.653 102.285 505.606 103.385C506.56 104.485 507.788 105.035 509.291 105.035ZM561.472 83.145V114H550.637V109.6C549.721 110.993 548.456 112.13 546.842 113.01C545.229 113.853 543.377 114.275 541.287 114.275C537.694 114.275 534.852 113.102 532.762 110.755C530.709 108.372 529.682 105.145 529.682 101.075V83.145H540.407V99.7C540.407 101.46 540.866 102.853 541.782 103.88C542.736 104.87 543.982 105.365 545.522 105.365C547.099 105.365 548.346 104.87 549.262 103.88C550.179 102.853 550.637 101.46 550.637 99.7V83.145H561.472ZM585.812 104.815V114H581.137C573.254 114 569.312 110.095 569.312 102.285V92.11H565.517V83.145H569.312V75.665H580.147V83.145H585.757V92.11H580.147V102.45C580.147 103.293 580.331 103.898 580.697 104.265C581.101 104.632 581.761 104.815 582.677 104.815H585.812ZM606.729 80.285C604.822 80.285 603.282 79.7717 602.109 78.745C600.972 77.6817 600.404 76.3617 600.404 74.785C600.404 73.1717 600.972 71.8333 602.109 70.77C603.282 69.7067 604.822 69.175 606.729 69.175C608.599 69.175 610.102 69.7067 611.239 70.77C612.412 71.8333 612.999 73.1717 612.999 74.785C612.999 76.3617 612.412 77.6817 611.239 78.745C610.102 79.7717 608.599 80.285 606.729 80.285ZM612.064 83.145V114H601.284V83.145H612.064ZM636.408 104.815V114H631.733C623.85 114 619.908 110.095 619.908 102.285V92.11H616.113V83.145H619.908V75.665H630.743V83.145H636.353V92.11H630.743V102.45C630.743 103.293 630.926 103.898 631.293 104.265C631.696 104.632 632.356 104.815 633.273 104.815H636.408ZM655.762 73.245L654.497 99.48H645.312L644.047 73.245H655.762ZM649.932 114.44C648.026 114.44 646.486 113.927 645.312 112.9C644.176 111.837 643.607 110.498 643.607 108.885C643.607 107.272 644.176 105.933 645.312 104.87C646.486 103.807 648.026 103.275 649.932 103.275C651.802 103.275 653.306 103.807 654.442 104.87C655.616 105.933 656.202 107.272 656.202 108.885C656.202 110.462 655.616 111.782 654.442 112.845C653.306 113.908 651.802 114.44 649.932 114.44Z" fill="url(#paint0_linear_2029_2650)"/>
<defs>
<linearGradient id="paint0_linear_2029_2650" x1="420.186" y1="114" x2="452.322" y2="193.838" gradientUnits="userSpaceOnUse">
<stop stop-color="#FF8660"/>
<stop offset="1" stop-color="#9A33FF"/>
</linearGradient>
</defs>
</svg>
